*********** **** **** *** ******** *********** **** *** **********

*+* +*+*+* *+*+*+ *+* *+* *+* *+* *+* *+*+* *+* *+*

+*+ +*+ +*+*+ +*+ +*+ +*+ +*+ +*+ *+*+*+ +*+ +*+

+$+ +$+ +*+ +$+ +$++*++$++* *$* +$+ +$+ +*+ +$+ +$++*++$

+$+ +$+ +$+ +$+ +$+ +$+ +$+$ +$+ +$+ +$+$+$ +$+

$+$ $+$ $+$ $+$ $+$ $+$ $+$ $+$ $+$ $+$+$ $+$

$$$$$$$$$$$ $$$ $$$ $$$ $$$ $$$$$$$$ $$$$$$$$$$$ $$$ $$$$ $$$$$$$$$$









Another Fine Release Brought to you from - IMAGiNE





********************************************************************************************************************

Blood Out 2011 DVDRIP XViD - IMAGiNE

********************************************************************************************************************



Ripper ...........:IMAGiNE IMDB Rating.......:n/a

Video Codec.......:XVID Release Date......:14/04/11

Audio Codec.......:AC-3 Theatre Date......:26/04/11

Audio Bitrate.....:448 Runtime...........:1h 25mn

Subtitles.........:NIL Language..........:ENGLISH

Resolution........:720 x 304 IMDb URL.......... http://www.imdb.com/title/tt1477675/





DETAILS:



Video

ID : 0

Format : MPEG-4 Visual

Format profile : Advanced Simple@L5

Format settings, BVOP : Yes

Format settings, QPel : No

Format settings, GMC : No warppoints

Format settings, Matrix : Default (MPEG)

Muxing mode : Packed bitstream

Codec ID : XVID

Codec ID/Hint : XviD

Duration : 1h 25mn

Bit rate : 1 848 Kbps

Width : 720 pixels

Height : 304 pixels

Display aspect ratio : 2.35:1

Frame rate : 25.000 fps

Color space : YUV

Chroma subsampling : 4:2:0

Bit depth : 8 bits

Scan type : Progressive

Compression mode : Lossy

Bits/(Pixel*Frame) : 0.338

Stream size : 1.10 GiB (80%)

Writing library : XviD 61



Audio

ID : 1

Format : AC-3

Format/Info : Audio Coding 3

Mode extension : CM (complete main)

Codec ID : 2000

Duration : 1h 25mn

Bit rate mode : Constant

Bit rate : 448 Kbps

Channel(s) : 6 channels

Channel positions : Front: L C R, Side: L R, LFE

Sampling rate : 48.0 KHz

Bit depth : 16 bits

Compression mode : Lossy

Stream size : 272 MiB (19%)

Alignment : Aligned on interleaves

Interleave, duration : 40 ms (1.00 video frame)













SOURCES:



VIDEO: Thankd m8ty ;-)

AUDIO: Thankd m8ty ;-)



NOTES:



Here we go with a dvdrip of this..........Blood Out;-)



Source was very nice as it was a dvdr (r4) thanks matey ,video was very nice all

we did was toned down the red and green and sharpened ,cropped and resized,etc....

Audio we just needed to mux to our rip ...;-)



Enjoy folks ;-)